<?xml version="1.0" encoding="UTF-8" standalone="no"?>
<svg
   width="24"
   height="24"
   version="1.1"
   id="svg31"
   sodipodi:docname="maximize.svg"
   inkscape:version="1.1.2 (0a00cf5339, 2022-02-04, custom)"
   xmlns:inkscape="http://www.inkscape.org/namespaces/inkscape"
   xmlns:sodipodi="http://sodipodi.sourceforge.net/DTD/sodipodi-0.dtd"
   xmlns="http://www.w3.org/2000/svg"
   xmlns:svg="http://www.w3.org/2000/svg">
  <defs
     id="defs35">
    <inkscape:path-effect
       effect="fillet_chamfer"
       id="path-effect1376"
       is_visible="true"
       lpeversion="1"
       satellites_param="F,0,0,1,0,4,0,1 @ F,0,0,1,0,4,0,1 @ F,0,0,1,0,4,0,1 @ F,0,0,1,0,4,0,1"
       unit="px"
       method="auto"
       mode="F"
       radius="4"
       chamfer_steps="1"
       flexible="false"
       use_knot_distance="true"
       apply_no_radius="true"
       apply_with_radius="true"
       only_selected="false"
       hide_knots="false" />
    <inkscape:path-effect
       effect="fillet_chamfer"
       id="path-effect1376-5"
       is_visible="true"
       lpeversion="1"
       satellites_param="F,0,0,1,0,4,0,1 @ F,0,0,1,0,4,0,1 @ F,0,0,1,0,4,0,1 @ F,0,0,1,0,4,0,1"
       unit="px"
       method="auto"
       mode="F"
       radius="4"
       chamfer_steps="1"
       flexible="false"
       use_knot_distance="true"
       apply_no_radius="true"
       apply_with_radius="true"
       only_selected="false"
       hide_knots="false" />
  </defs>
  <sodipodi:namedview
     id="namedview33"
     pagecolor="#111111"
     bordercolor="#999999"
     borderopacity="1"
     inkscape:pageshadow="0"
     inkscape:pageopacity="0"
     inkscape:pagecheckerboard="true"
     showgrid="false"
     inkscape:zoom="4.0732297"
     inkscape:cx="52.415409"
     inkscape:cy="14.362068"
     inkscape:window-width="1366"
     inkscape:window-height="734"
     inkscape:window-x="0"
     inkscape:window-y="0"
     inkscape:window-maximized="1"
     inkscape:current-layer="pressed-center"
     inkscape:snap-bbox="true"
     inkscape:bbox-nodes="true" />
  <g
     id="pressed-center"
     transform="matrix(1.0909091,0,0,1.0909091,-2.1818182,0)">
    <path
       id="rect1332-3"
       style="fill:#3365ff;fill-opacity:0.301961;fill-rule:evenodd;stroke-width:3.18633"
       d="m 50,0 h 14 a 4,4 45 0 1 4,4 v 14 a 4,4 135 0 1 -4,4 H 50 A 4,4 45 0 1 46,18 V 4 a 4,4 135 0 1 4,-4 z"
       inkscape:path-effect="#path-effect1376-5"
       inkscape:original-d="M 46,0 H 68 V 22 H 46 Z" />
    <path
       style="fill:#fefefe"
       d="m 53.333333,7.3333333 c 0,2.4444446 0,4.8888887 0,7.3333337 h 7.333333 c 0,-2.444445 0,-4.8888891 0,-7.3333337 z m 1.833333,1.8333333 h 3.666667 c 0,1.2222224 0,2.4444454 0,3.6666674 h -3.666667 c 0,-1.222222 0,-2.444445 0,-3.6666674 z"
       id="path6" />
  </g>
  <g
     id="hover-center"
     transform="matrix(1.0909091,0,0,1.0909091,-1.0909091,0)">
    <path
       id="rect1332"
       style="fill:#808080;fill-opacity:0.45098;fill-rule:evenodd;stroke-width:3.18633"
       d="m 27,0 h 14 a 4,4 45 0 1 4,4 v 14 a 4,4 135 0 1 -4,4 H 27 A 4,4 45 0 1 23,18 V 4 a 4,4 135 0 1 4,-4 z"
       inkscape:path-effect="#path-effect1376"
       inkscape:original-d="M 23,0 H 45 V 22 H 23 Z" />
    <path
       style="fill:#fefefe"
       d="m 30.333333,7.3333333 c 0,2.4444446 0,4.8888887 0,7.3333337 h 7.333334 c 0,-2.444445 0,-4.8888891 0,-7.3333337 z m 1.833334,1.8333333 h 3.666666 c 0,1.2222224 0,2.4444454 0,3.6666674 h -3.666666 c 0,-1.222222 0,-2.444445 0,-3.6666674 z"
       id="path13" />
  </g>
  <g
     id="active-center"
     transform="scale(1.0909091)">
    <rect
       style="opacity:0.001"
       width="22"
       height="22"
       x="0"
       y="0"
       id="rect16" />
    <path
       style="fill:#fefefe"
       d="m 7.3333335,7.3333333 c 0,2.4444446 0,4.8888887 0,7.3333337 h 7.3333325 c 0,-2.444445 0,-4.8888891 0,-7.3333337 z m 1.8333333,1.8333333 h 3.6666662 c 0,1.2222224 0,2.4444454 0,3.6666674 H 9.1666668 c 0,-1.222222 0,-2.444445 0,-3.6666674 z"
       id="path18" />
  </g>
  <g
     id="inactive-center"
     transform="matrix(1.0909091,0,0,1.0909091,72.000001,0)">
    <rect
       style="opacity:0.001"
       width="22"
       height="22"
       x="0"
       y="0"
       id="rect21" />
    <path
       style="opacity:0.7;fill:#fefefe"
       d="m 7.3333334,7.3333333 c 0,2.4444446 0,4.8888887 0,7.3333337 h 7.3333336 c 0,-2.444445 0,-4.8888891 0,-7.3333337 z m 1.8333333,1.8333333 h 3.6666663 c 0,1.2222224 0,2.4444454 0,3.6666674 H 9.1666667 c 0,-1.222222 0,-2.444445 0,-3.6666674 z"
       id="path23" />
  </g>
  <g
     id="deactivated-center"
     transform="matrix(1.0909091,0,0,1.0909091,96.000001,0)">
    <rect
       style="opacity:0.001"
       width="22"
       height="22"
       x="0"
       y="0"
       id="rect26" />
    <path
       style="opacity:0.7;fill:#fefefe"
       d="m 7.3333333,7.3333333 c 0,2.4444446 0,4.8888887 0,7.3333337 h 7.3333337 c 0,-2.444445 0,-4.8888891 0,-7.3333337 z m 1.8333334,1.8333333 h 3.6666663 c 0,1.2222224 0,2.4444454 0,3.6666674 H 9.1666667 c 0,-1.222222 0,-2.444445 0,-3.6666674 z"
       id="path28" />
  </g>
</svg>
