<?xml version="1.0" encoding="UTF-8" standalone="no"?>
<svg
   width="24"
   height="24"
   version="1.1"
   id="svg31"
   sodipodi:docname="close.svg"
   inkscape:version="1.1.2 (0a00cf5339, 2022-02-04, custom)"
   xmlns:inkscape="http://www.inkscape.org/namespaces/inkscape"
   xmlns:sodipodi="http://sodipodi.sourceforge.net/DTD/sodipodi-0.dtd"
   xmlns="http://www.w3.org/2000/svg"
   xmlns:svg="http://www.w3.org/2000/svg">
  <defs
     id="defs35">
    <inkscape:path-effect
       effect="fillet_chamfer"
       id="path-effect1376"
       is_visible="true"
       lpeversion="1"
       satellites_param="F,0,0,1,0,4,0,1 @ F,0,0,1,0,4,0,1 @ F,0,0,1,0,4,0,1 @ F,0,0,1,0,4,0,1"
       unit="px"
       method="auto"
       mode="F"
       radius="4"
       chamfer_steps="1"
       flexible="false"
       use_knot_distance="true"
       apply_no_radius="true"
       apply_with_radius="true"
       only_selected="false"
       hide_knots="false" />
    <inkscape:path-effect
       effect="fillet_chamfer"
       id="path-effect1376-3"
       is_visible="true"
       lpeversion="1"
       satellites_param="F,0,0,1,0,4,0,1 @ F,0,0,1,0,4,0,1 @ F,0,0,1,0,4,0,1 @ F,0,0,1,0,4,0,1"
       unit="px"
       method="auto"
       mode="F"
       radius="4"
       chamfer_steps="1"
       flexible="false"
       use_knot_distance="true"
       apply_no_radius="true"
       apply_with_radius="true"
       only_selected="false"
       hide_knots="false" />
    <inkscape:path-effect
       effect="fillet_chamfer"
       id="path-effect1376-7"
       is_visible="true"
       lpeversion="1"
       satellites_param="F,0,0,1,0,4,0,1 @ F,0,0,1,0,4,0,1 @ F,0,0,1,0,4,0,1 @ F,0,0,1,0,4,0,1"
       unit="px"
       method="auto"
       mode="F"
       radius="4"
       chamfer_steps="1"
       flexible="false"
       use_knot_distance="true"
       apply_no_radius="true"
       apply_with_radius="true"
       only_selected="false"
       hide_knots="false" />
    <inkscape:path-effect
       effect="fillet_chamfer"
       id="path-effect1376-35"
       is_visible="true"
       lpeversion="1"
       satellites_param="F,0,0,1,0,4,0,1 @ F,0,0,1,0,4,0,1 @ F,0,0,1,0,4,0,1 @ F,0,0,1,0,4,0,1"
       unit="px"
       method="auto"
       mode="F"
       radius="4"
       chamfer_steps="1"
       flexible="false"
       use_knot_distance="true"
       apply_no_radius="true"
       apply_with_radius="true"
       only_selected="false"
       hide_knots="false" />
    <inkscape:path-effect
       effect="fillet_chamfer"
       id="path-effect1376-2"
       is_visible="true"
       lpeversion="1"
       satellites_param="F,0,0,1,0,4,0,1 @ F,0,0,1,0,4,0,1 @ F,0,0,1,0,4,0,1 @ F,0,0,1,0,4,0,1"
       unit="px"
       method="auto"
       mode="F"
       radius="4"
       chamfer_steps="1"
       flexible="false"
       use_knot_distance="true"
       apply_no_radius="true"
       apply_with_radius="true"
       only_selected="false"
       hide_knots="false" />
  </defs>
  <sodipodi:namedview
     id="namedview33"
     pagecolor="#101010"
     bordercolor="#999999"
     borderopacity="1"
     inkscape:pageshadow="0"
     inkscape:pageopacity="0"
     inkscape:pagecheckerboard="true"
     showgrid="false"
     inkscape:zoom="8.1464594"
     inkscape:cx="87.95232"
     inkscape:cy="12.704906"
     inkscape:window-width="1366"
     inkscape:window-height="736"
     inkscape:window-x="0"
     inkscape:window-y="0"
     inkscape:window-maximized="1"
     inkscape:current-layer="pressed-center"
     inkscape:snap-bbox="true"
     inkscape:bbox-paths="false"
     inkscape:bbox-nodes="true" />
  <g
     id="active-center"
     transform="scale(1.0909091)">
    <rect
       style="opacity:0.001"
       width="22"
       height="22"
       x="0"
       y="0"
       id="rect2" />
    <path
       style="fill:#fefefe"
       d="m 7.3362155,7.3335477 h 0.9163064 c 0.0095,-1.1e-4 0.01905,-4.217e-4 0.028635,0 0.2336132,0.010267 0.4671971,0.1178615 0.6299607,0.2864499 l 2.0903244,2.091085 2.118958,-2.091085 c 0.243394,-0.2112855 0.409288,-0.2800335 0.62996,-0.2864499 h 0.916307 v 0.9166398 c 0,0.2625899 -0.03147,0.5047479 -0.229076,0.68748 l -2.090325,2.0910845 2.06169,2.062441 c 0.172438,0.172484 0.257703,0.41565 0.257711,0.658835 v 0.916639 H 13.75036 c -0.243096,-9e-6 -0.486179,-0.08534 -0.658595,-0.257804 L 11.001442,12.317777 8.9111172,14.408863 C 8.7387013,14.581365 8.4956088,14.666667 8.2525219,14.666667 H 7.3362155 v -0.916639 c -2.7e-6,-0.243176 0.085272,-0.486351 0.2577112,-0.658835 L 9.6842508,11.028752 7.5939267,8.9376675 C 7.4008224,8.7592619 7.3161393,8.5075342 7.3362155,8.2501875 Z"
       id="path4" />
  </g>
  <g
     id="pressed-center"
     transform="matrix(1.0909091,0,0,1.0909091,-2.1818182,0)">
    <path
       id="rect1332-6"
       style="fill:#fc291c;fill-opacity:0.9;fill-rule:evenodd;stroke-width:3.18633"
       d="M 50,-2.7500002e-6 H 64 A 4,4 45 0 1 68,3.9999972 V 18 a 4,4 135 0 1 -4,4 H 50 A 4,4 45 0 1 46,18 V 3.9999972 A 4,4 135 0 1 50,-2.7500002e-6 Z"
       inkscape:path-effect="#path-effect1376-35"
       inkscape:original-d="M 46,-2.7500002e-6 H 68 V 22 H 46 Z" />
    <path
       style="fill:#fefefe"
       d="m 53.336214,7.3335477 h 0.916307 c 0.0095,-1.1e-4 0.01905,-4.217e-4 0.02864,0 0.233612,0.010267 0.467196,0.1178615 0.629959,0.2864499 l 2.090325,2.091085 2.118959,-2.091085 c 0.243393,-0.2112855 0.409288,-0.2800335 0.62996,-0.2864499 h 0.916304 v 0.9166398 c 0,0.2625899 -0.03147,0.5047479 -0.229076,0.68748 l -2.090324,2.0910845 2.061689,2.062441 c 0.172438,0.172484 0.257704,0.41565 0.257711,0.658835 v 0.916639 h -0.916305 c -0.243098,-9e-6 -0.48618,-0.08534 -0.658596,-0.257804 l -2.090327,-2.091086 -2.090324,2.091086 c -0.172416,0.172502 -0.415508,0.257804 -0.658595,0.257804 h -0.916307 v -0.916639 c -2e-6,-0.243176 0.08527,-0.486351 0.257711,-0.658835 L 55.68425,11.028752 53.593925,8.9376675 C 53.400821,8.7592619 53.316138,8.5075342 53.336214,8.2501875 Z"
       id="path11" />
  </g>
  <g
     id="inactive-center"
     transform="matrix(1.0909091,0,0,1.0909091,-3.2727273,0)">
    <rect
       style="opacity:0.001"
       width="22"
       height="22"
       x="69"
       y="0"
       id="rect14" />
    <path
       style="opacity:0.7;fill:#fefefe"
       d="m 76.336214,7.3335477 h 0.916307 c 0.0095,-1.1e-4 0.01905,-4.217e-4 0.02864,0 0.233614,0.010267 0.467198,0.1178615 0.629961,0.2864499 l 2.090325,2.091085 2.118958,-2.091085 c 0.243394,-0.2112855 0.409288,-0.2800335 0.62996,-0.2864499 h 0.916304 v 0.9166398 c 0,0.2625899 -0.03147,0.5047479 -0.229076,0.68748 l -2.090325,2.0910845 2.06169,2.062441 c 0.172438,0.172484 0.257704,0.41565 0.257711,0.658835 v 0.916639 h -0.916311 c -0.243096,-9e-6 -0.486178,-0.08534 -0.658594,-0.257804 l -2.090324,-2.091086 -2.090325,2.091086 c -0.172415,0.172502 -0.415508,0.257804 -0.658594,0.257804 h -0.916307 v -0.916639 c -3e-6,-0.243176 0.08527,-0.486351 0.257711,-0.658835 L 78.68425,11.028752 76.593925,8.9376675 C 76.400821,8.7592619 76.316137,8.5075342 76.336214,8.2501875 Z"
       id="path16" />
  </g>
  <g
     id="deactivated-center"
     transform="matrix(1.0909091,0,0,1.0909091,-4.3636364,0)">
    <rect
       style="opacity:0.001"
       width="22"
       height="22"
       x="92"
       y="0"
       id="rect19" />
    <path
       style="opacity:0.7;fill:#fefefe"
       d="m 99.336216,7.3335477 h 0.916304 c 0.01,-1.1e-4 0.0191,-4.217e-4 0.0286,0 0.23361,0.010267 0.4672,0.1178615 0.62996,0.2864499 l 2.09032,2.091085 2.11896,-2.091085 c 0.24339,-0.2112855 0.40929,-0.2800335 0.62996,-0.2864499 h 0.91635 v 0.9166398 c 0,0.2625899 -0.0314,0.5047479 -0.22908,0.68748 l -2.09032,2.0910845 2.06168,2.062441 c 0.17244,0.172484 0.25771,0.41565 0.25772,0.658835 v 0.916639 h -0.91631 c -0.24309,-9e-6 -0.48618,-0.08534 -0.65859,-0.257804 l -2.09033,-2.091086 -2.09032,2.091086 c -0.17242,0.172502 -0.41551,0.257804 -0.6586,0.257804 h -0.916304 v -0.916639 c -3e-6,-0.243176 0.08527,-0.486351 0.257711,-0.658835 L 101.68425,11.028752 99.593927,8.9376675 C 99.400823,8.7592619 99.316139,8.5075342 99.336216,8.2501875 Z"
       id="path21" />
  </g>
  <g
     id="hover-center"
     transform="matrix(1.0909091,0,0,1.0909091,-1.0909091,0)">
    <path
       id="rect1332"
       style="fill-opacity:0.60000002;fill-rule:evenodd;stroke-width:3.18633;fill:#fc291c"
       d="m 27,0 h 14 a 4,4 45 0 1 4,4 l 0,14 a 4,4 135 0 1 -4,4 H 27 A 4,4 45 0 1 23,18 V 4 a 4,4 135 0 1 4,-4 z"
       inkscape:path-effect="#path-effect1376"
       inkscape:original-d="M 23,0 H 45 V 22 H 23 Z" />
    <path
       style="fill:#fefefe"
       d="m 30.336213,7.3335477 h 0.916306 c 0.0095,-1.1e-4 0.01905,-4.217e-4 0.02864,0 0.233613,0.010267 0.467197,0.1178615 0.629961,0.2864499 l 2.090324,2.091085 2.118959,-2.091085 c 0.243393,-0.2112855 0.409288,-0.2800335 0.62996,-0.2864499 h 0.916303 v 0.9166398 c 0,0.2625899 -0.03147,0.5047479 -0.229075,0.68748 l -2.090325,2.0910845 2.06169,2.062441 c 0.172438,0.172484 0.257703,0.41565 0.25771,0.658835 v 0.916639 H 36.75036 c -0.243096,-9e-6 -0.486179,-0.08534 -0.658595,-0.257804 l -2.090323,-2.091086 -2.090325,2.091086 c -0.172416,0.172502 -0.415509,0.257804 -0.658595,0.257804 h -0.916306 v -0.916639 c -3e-6,-0.243176 0.08527,-0.486351 0.25771,-0.658835 l 2.090325,-2.062441 -2.090325,-2.0910845 c -0.193104,-0.1784056 -0.277787,-0.4301333 -0.25771,-0.68748 z"
       id="path28" />
  </g>
</svg>
