<?xml version="1.0" encoding="UTF-8" standalone="no"?>
<svg
   width="24"
   height="24"
   version="1.1"
   id="svg35"
   sodipodi:docname="minimize.svg"
   inkscape:version="1.1.2 (0a00cf5339, 2022-02-04, custom)"
   xmlns:inkscape="http://www.inkscape.org/namespaces/inkscape"
   xmlns:sodipodi="http://sodipodi.sourceforge.net/DTD/sodipodi-0.dtd"
   xmlns="http://www.w3.org/2000/svg"
   xmlns:svg="http://www.w3.org/2000/svg">
  <defs
     id="defs39">
    <inkscape:path-effect
       effect="fillet_chamfer"
       id="path-effect1376"
       is_visible="true"
       lpeversion="1"
       satellites_param="F,0,0,1,0,4,0,1 @ F,0,0,1,0,4,0,1 @ F,0,0,1,0,4,0,1 @ F,0,0,1,0,4,0,1"
       unit="px"
       method="auto"
       mode="F"
       radius="4"
       chamfer_steps="1"
       flexible="false"
       use_knot_distance="true"
       apply_no_radius="true"
       apply_with_radius="true"
       only_selected="false"
       hide_knots="false" />
    <inkscape:path-effect
       effect="fillet_chamfer"
       id="path-effect1376-5"
       is_visible="true"
       lpeversion="1"
       satellites_param="F,0,0,1,0,4,0,1 @ F,0,0,1,0,4,0,1 @ F,0,0,1,0,4,0,1 @ F,0,0,1,0,4,0,1"
       unit="px"
       method="auto"
       mode="F"
       radius="4"
       chamfer_steps="1"
       flexible="false"
       use_knot_distance="true"
       apply_no_radius="true"
       apply_with_radius="true"
       only_selected="false"
       hide_knots="false" />
  </defs>
  <sodipodi:namedview
     id="namedview37"
     pagecolor="#191919"
     bordercolor="#999999"
     borderopacity="1"
     inkscape:pageshadow="0"
     inkscape:pageopacity="0"
     inkscape:pagecheckerboard="true"
     showgrid="false"
     inkscape:snap-bbox="true"
     inkscape:bbox-nodes="true"
     inkscape:zoom="8"
     inkscape:cx="37.5625"
     inkscape:cy="16.1875"
     inkscape:window-width="1366"
     inkscape:window-height="734"
     inkscape:window-x="0"
     inkscape:window-y="0"
     inkscape:window-maximized="1"
     inkscape:current-layer="pressed-center" />
  <g
     id="pressed-center"
     transform="matrix(1.0909091,0,0,1.0909091,-2.1818182,0)">
    <path
       id="rect1332-3"
       style="fill:#3365ff;fill-opacity:0.3019608;fill-rule:evenodd;stroke-width:3.18633"
       d="m 50,0 h 14 a 4,4 45 0 1 4,4 v 14 a 4,4 135 0 1 -4,4 H 50 A 4,4 45 0 1 46,18 V 4 a 4,4 135 0 1 4,-4 z"
       inkscape:path-effect="#path-effect1376-5"
       inkscape:original-d="M 46,0 H 68 V 22 H 46 Z" />
    <path
       style="fill:#fefefe"
       d="m 53.333366,14.666667 h 7.333267 V 12.83335 h -7.333267 z"
       id="path8" />
  </g>
  <g
     id="hover-center"
     transform="matrix(1.0909091,0,0,1.0909091,-1.0909091,0)">
    <path
       id="rect1332"
       style="fill:#808080;fill-opacity:0.4509804;fill-rule:evenodd;stroke-width:3.18633"
       d="m 27,0 h 14 a 4,4 45 0 1 4,4 l 0,14 a 4,4 135 0 1 -4,4 H 27 A 4,4 45 0 1 23,18 V 4 a 4,4 135 0 1 4,-4 z"
       inkscape:path-effect="#path-effect1376"
       inkscape:original-d="M 23,0 H 45 V 22 H 23 Z" />
    <path
       style="fill:#fefefe"
       d="m 30.333366,14.666667 h 7.333267 V 12.83335 h -7.333267 z"
       id="path17" />
  </g>
  <g
     id="active-center"
     transform="scale(1.0909091)">
    <rect
       style="opacity:0.001"
       width="22"
       height="22"
       x="0"
       y="0"
       id="rect20" />
    <path
       style="fill:#fefefe"
       d="m 7.3333665,12.83335 v 1.833317 H 14.666633 V 12.83335 Z"
       id="path22" />
  </g>
  <g
     id="inactive-center"
     transform="matrix(1.0909091,0,0,1.0909091,72.000001,0)">
    <rect
       style="opacity:0.001"
       width="22"
       height="22"
       x="0"
       y="0"
       id="rect25" />
    <path
       style="opacity:0.7;fill:#fefefe"
       d="m 7.3333664,12.83335 v 1.833317 H 14.666634 V 12.83335 Z"
       id="path27" />
  </g>
  <g
     id="deactivated-center"
     transform="matrix(1.0909091,0,0,1.0909091,96.000001,0)">
    <rect
       style="opacity:0.001"
       width="22"
       height="22"
       x="0"
       y="0"
       id="rect30" />
    <path
       style="opacity:0.7;fill:#fefefe"
       d="m 7.3333663,12.83335 v 1.833317 H 14.666634 V 12.83335 Z"
       id="path32" />
  </g>
</svg>
